<?xml version="1.0" encoding="utf-8"?>
<!-- Generator: Adobe Illustrator 21.0.0, SVG Export Plug-In . SVG Version: 6.00 Build 0)  -->
<svg version="1.1" id="Camada_1" xmlns="http://www.w3.org/2000/svg" xmlns:xlink="http://www.w3.org/1999/xlink" x="0px" y="0px"
	 viewBox="0 0 1048 166" style="enable-background:new 0 0 1048 166;" xml:space="preserve">
<style type="text/css">
	.st0{fill:#0BBBEF;stroke:#04BAEE;stroke-miterlimit:10;}
	.st1{fill-rule:evenodd;clip-rule:evenodd;fill:#04BAEE;}
	.st2{fill-rule:evenodd;clip-rule:evenodd;fill:#1E1E1E;}
	.st3{fill-rule:evenodd;clip-rule:evenodd;fill:#FFFFFF;}
	.st4{fill:#11BAEE;}
</style>
<g>
	<g>
		<path class="st0" d="M702.5,90.1c-1.4-0.7-2.3-1.7-2.9-2.9c-0.6-1.2-0.9-2.5-0.8-3.9h0.9c-0.1,1.1,0.1,2.1,0.6,3.2
			c0.4,1.1,1.3,2,2.5,2.7c1.2,0.8,2.9,1.1,5,1.1c2.4,0,4.4-0.6,6-1.8c1.6-1.2,2.6-2.8,2.9-4.8c0.1-0.6,0.1-1.2,0.1-1.7
			c0-1.4-0.3-2.6-1-3.5c-0.7-0.9-1.6-1.6-2.6-2.2c-1-0.5-2.4-1.1-4.1-1.8c-1.7-0.6-3-1.2-4-1.7s-1.9-1.2-2.6-2.2s-1-2.1-1-3.5
			c0-0.5,0-1,0.1-1.6c0.2-1.3,0.7-2.4,1.6-3.5c0.8-1.1,2-1.9,3.4-2.5c1.4-0.6,3.1-0.9,4.9-0.9c1.8,0,3.4,0.3,4.7,1
			c1.3,0.7,2.2,1.5,2.8,2.5s0.9,2.1,0.8,3.2h-0.9c0-0.8-0.2-1.7-0.8-2.6c-0.5-0.9-1.4-1.7-2.6-2.3c-1.2-0.6-2.6-0.9-4.3-0.9
			c-2.3,0-4.3,0.5-5.9,1.6c-1.6,1.1-2.6,2.6-3,4.5c-0.1,0.5-0.1,0.9-0.1,1.4c0,1.3,0.3,2.3,1,3.1c0.6,0.8,1.5,1.5,2.4,2
			c1,0.5,2.3,1,3.9,1.7c1.8,0.7,3.2,1.3,4.3,1.9c1.1,0.6,1.9,1.3,2.7,2.3c0.7,1,1.1,2.3,1.1,3.8c0,0.6-0.1,1.2-0.2,1.9
			c-0.2,1.3-0.8,2.6-1.6,3.7c-0.8,1.1-1.9,2-3.4,2.7c-1.4,0.7-3.1,1-4.9,1C705.5,91.2,703.8,90.8,702.5,90.1z"/>
		<path class="st0" d="M726.2,88.6c-1.8-1.7-2.7-4.1-2.7-7.1c0-2.8,0.6-5.3,1.9-7.7c1.2-2.3,2.9-4.2,5.1-5.6
			c2.2-1.4,4.6-2.1,7.3-2.1c3,0,5.4,0.9,7.2,2.6c1.8,1.7,2.7,4.1,2.7,7.1c0,2.8-0.6,5.3-1.8,7.7c-1.2,2.3-2.9,4.2-5.1,5.6
			c-2.2,1.4-4.6,2.1-7.3,2.1C730.5,91.2,728,90.3,726.2,88.6z M740.5,88.4c2-1.3,3.6-3.1,4.7-5.3c1.1-2.2,1.6-4.6,1.6-7.2
			c0-2.9-0.9-5.1-2.6-6.6s-3.9-2.3-6.6-2.3c-2.6,0-4.9,0.7-6.9,2c-2,1.3-3.6,3.1-4.7,5.3c-1.1,2.2-1.7,4.6-1.7,7.2
			c0,2.9,0.9,5.1,2.6,6.7c1.7,1.5,3.9,2.3,6.6,2.3C736.2,90.3,738.5,89.7,740.5,88.4z"/>
		<path class="st0" d="M758.7,57.4l-5.9,33.4h-0.9l5.9-33.4H758.7z"/>
		<path class="st0" d="M784.8,66.5l-4.3,24.4h-0.9l1.2-6.6c-1,2.3-2.4,4.1-4.3,5.3c-1.9,1.2-4.1,1.8-6.5,1.8c-2.5,0-4.5-0.7-6-2
			c-1.5-1.3-2.3-3.3-2.3-6c0-0.8,0.1-1.8,0.3-2.8l2.5-14.1h0.9l-2.5,14.2c-0.2,0.8-0.2,1.6-0.2,2.6c0,2.3,0.7,4.1,2,5.4
			c1.3,1.2,3.1,1.9,5.5,1.9c2.9,0,5.4-0.9,7.5-2.8c2.1-1.9,3.4-4.7,4-8.3v0.1l2.3-13H784.8z"/>
		<path class="st0" d="M810.4,68.5c1.7,1.6,2.5,3.7,2.5,6.2h-0.9c0-2.4-0.8-4.3-2.4-5.7c-1.6-1.4-3.8-2.1-6.5-2.1
			c-2,0-3.8,0.4-5.6,1.3s-3.3,2.2-4.6,3.9c-1.3,1.7-2.2,3.9-2.6,6.5c-0.2,1-0.3,2-0.3,2.8c0,2.9,0.8,5.1,2.6,6.6
			c1.7,1.5,3.9,2.3,6.5,2.3c2.7,0,5.2-0.7,7.3-2.1s3.6-3.3,4.4-5.7h0.9c-0.8,2.5-2.4,4.5-4.5,6.1c-2.2,1.6-4.8,2.4-7.7,2.5l-0.7,3.7
			c1.7-0.1,3,0.1,3.8,0.6c0.9,0.5,1.3,1.3,1.3,2.3c0,0.3,0,0.5,0,0.7c-0.2,1.2-0.8,2.1-1.7,2.8c-0.9,0.7-2.2,1.1-3.7,1.1h-2.8
			l0.1-0.9h2.7c2.7,0,4.2-1,4.6-3c0-0.1,0-0.3,0-0.5c0-0.7-0.3-1.2-0.8-1.6s-1.5-0.6-2.7-0.6h-1.7l0.8-4.5c-2.9-0.1-5.1-1-6.8-2.7
			c-1.7-1.7-2.5-4-2.5-6.9c0-0.9,0.1-1.9,0.3-2.9c0.5-2.6,1.3-4.8,2.7-6.7s3-3.3,4.9-4.3c2-1,4.1-1.5,6.3-1.5
			C806.3,66.1,808.7,66.9,810.4,68.5z"/>
		<path class="st0" d="M820.1,88.6c-1.8-1.7-2.7-4.1-2.7-7.1c0-2.8,0.6-5.3,1.9-7.7c1.2-2.3,2.9-4.2,5.1-5.6
			c2.2-1.4,4.6-2.1,7.3-2.1c3,0,5.4,0.9,7.2,2.6c1.8,1.7,2.7,4.1,2.7,7.1c0,2.8-0.6,5.3-1.8,7.7c-1.2,2.3-2.9,4.2-5.1,5.6
			c-2.2,1.4-4.6,2.1-7.3,2.1C824.3,91.2,821.9,90.3,820.1,88.6z M834.4,88.4c2-1.3,3.6-3.1,4.7-5.3c1.1-2.2,1.6-4.6,1.6-7.2
			c0-2.9-0.9-5.1-2.6-6.6s-3.9-2.3-6.6-2.3c-2.6,0-4.9,0.7-6.9,2c-2,1.3-3.6,3.1-4.7,5.3c-1.1,2.2-1.7,4.6-1.7,7.2
			c0,2.9,0.9,5.1,2.6,6.7c1.7,1.5,3.9,2.3,6.6,2.3C830,90.3,832.4,89.7,834.4,88.4z M829.1,61.1c0.6-0.5,1.2-0.8,2-0.8
			c0.5,0,0.9,0.1,1.2,0.3c0.3,0.2,0.7,0.5,1.1,0.9c0.4,0.4,0.7,0.6,1,0.8s0.7,0.3,1.1,0.3c0.5,0,1-0.2,1.4-0.6
			c0.4-0.4,0.7-0.9,0.9-1.6h0.8c-0.2,0.8-0.6,1.5-1.2,2.1c-0.6,0.6-1.3,0.9-2.1,0.9c-0.5,0-1-0.1-1.4-0.3c-0.4-0.2-0.8-0.5-1.2-0.9
			c-0.3-0.3-0.6-0.6-0.9-0.8c-0.3-0.2-0.6-0.3-1-0.3c-1.1,0-1.8,0.7-2.3,2.2h-0.8C828.1,62.3,828.5,61.6,829.1,61.1z"/>
		<path class="st0" d="M866,67.3c1.4,0.8,2.5,1.8,3.2,3.1c0.7,1.3,1.1,2.7,1.1,4.3c0,0.4-0.1,1-0.2,1.9l-0.2,0.9
			c-0.1,0.5-0.2,1-0.3,1.5h-22c-0.2,1-0.2,1.8-0.2,2.5c0,2.9,0.9,5.1,2.6,6.6c1.7,1.5,3.9,2.2,6.5,2.2c2.7,0,5.2-0.7,7.3-2.1
			s3.6-3.3,4.4-5.7h0.9c-0.9,2.6-2.4,4.6-4.7,6.2c-2.3,1.6-4.9,2.4-8,2.4c-3,0-5.4-0.9-7.1-2.6c-1.8-1.7-2.7-4.1-2.7-7.1
			c0-0.9,0.1-1.9,0.3-2.9c0.5-2.6,1.3-4.8,2.7-6.7s3-3.3,4.9-4.3c2-1,4.1-1.5,6.3-1.5C862.8,66.1,864.6,66.5,866,67.3z M869.4,75.1
			c0-2.7-0.8-4.7-2.5-6.1c-1.7-1.4-3.8-2.1-6.3-2.1c-1.9,0-3.8,0.4-5.6,1.2c-1.8,0.8-3.3,2.1-4.6,3.8c-1.3,1.7-2.2,3.8-2.6,6.3H869
			C869.3,77.1,869.4,76,869.4,75.1z"/>
		<path class="st0" d="M875.6,89.5c-1.4-1.1-2-2.7-1.9-4.9h0.9c-0.2,1.8,0.4,3.2,1.5,4.2c1.2,1,2.9,1.5,5.2,1.5
			c2.4,0,4.3-0.6,5.7-1.7c1.4-1.1,2.1-2.5,2.1-4.2c0-1-0.3-1.9-0.8-2.5s-1.2-1.2-2.1-1.6c-0.8-0.4-1.9-0.8-3.3-1.3
			c-1.5-0.5-2.8-1-3.7-1.5c-0.9-0.4-1.7-1.1-2.3-1.9c-0.6-0.8-0.9-1.9-0.9-3.2c0-1.3,0.4-2.4,1.1-3.3c0.7-1,1.7-1.7,3-2.3
			c1.3-0.5,2.6-0.8,4.2-0.8c2.1,0,3.9,0.6,5.3,1.7s2.1,2.6,2.1,4.4c0,0.4,0,0.7,0,0.9h-0.9c0-0.2,0-0.5,0-0.8c0-1.6-0.6-2.9-1.9-3.9
			c-1.3-1-2.9-1.5-4.8-1.5c-2,0-3.8,0.5-5.1,1.5c-1.4,1-2.1,2.4-2.1,4.1c0,1.1,0.3,2,0.9,2.8s1.3,1.3,2.1,1.7c0.8,0.4,2,0.8,3.4,1.3
			c1.5,0.5,2.7,1,3.5,1.4c0.9,0.4,1.6,1,2.2,1.8c0.6,0.8,0.9,1.8,0.9,3c0,2-0.8,3.7-2.4,4.9c-1.6,1.2-3.7,1.8-6.3,1.8
			C878.9,91.2,877,90.6,875.6,89.5z"/>
		<path class="st0" d="M929.2,67.3c1.4,0.8,2.5,1.8,3.2,3.1c0.7,1.3,1.1,2.7,1.1,4.3c0,0.4-0.1,1-0.2,1.9l-0.2,0.9
			c-0.1,0.5-0.2,1-0.3,1.5h-22c-0.2,1-0.2,1.8-0.2,2.5c0,2.9,0.9,5.1,2.6,6.6c1.7,1.5,3.9,2.2,6.5,2.2c2.7,0,5.2-0.7,7.3-2.1
			s3.6-3.3,4.4-5.7h0.9c-0.9,2.6-2.4,4.6-4.7,6.2c-2.3,1.6-4.9,2.4-8,2.4c-3,0-5.4-0.9-7.1-2.6c-1.8-1.7-2.7-4.1-2.7-7.1
			c0-0.9,0.1-1.9,0.3-2.9c0.5-2.6,1.3-4.8,2.7-6.7s3-3.3,4.9-4.3c2-1,4.1-1.5,6.3-1.5C926.1,66.1,927.8,66.5,929.2,67.3z
			 M932.7,75.1c0-2.7-0.8-4.7-2.5-6.1c-1.7-1.4-3.8-2.1-6.3-2.1c-1.9,0-3.8,0.4-5.6,1.2c-1.8,0.8-3.3,2.1-4.6,3.8
			c-1.3,1.7-2.2,3.8-2.6,6.3h21.2C932.5,77.1,932.7,76,932.7,75.1z"/>
		<path class="st0" d="M975.9,67.9c1.4,1.3,2.1,3.3,2.1,5.9c0,0.9-0.1,1.8-0.3,2.9l-2.5,14.2h-0.9l2.5-14.3c0.2-1,0.3-1.9,0.3-2.8
			c0-2.3-0.6-4-1.8-5.2c-1.2-1.2-2.9-1.8-5.1-1.8c-2.7,0-5,0.9-7,2.8c-2,1.9-3.4,4.5-4.1,8.1l-2.3,13.3h-0.9l2.5-14.3
			c0.2-1,0.3-1.9,0.3-2.8c0-2.3-0.6-4-1.8-5.2c-1.2-1.2-2.9-1.8-5.1-1.8c-2.7,0-5,0.9-7,2.8c-2,1.9-3.4,4.5-4.1,8.1l-2.3,13.3h-0.9
			l4.3-24.4h0.9l-1.1,6.4c1-2.3,2.5-4.1,4.3-5.2c1.8-1.2,3.9-1.7,6.1-1.7c2.3,0,4.1,0.6,5.5,1.9s2.1,3.2,2.1,5.8
			c1-2.6,2.4-4.5,4.3-5.8c1.9-1.3,4.1-1.9,6.5-1.9C972.6,65.9,974.4,66.6,975.9,67.9z"/>
	</g>
	<g>
		<path class="st0" d="M678.1,129.1c-1.4-0.7-2.3-1.7-2.9-2.9c-0.6-1.2-0.9-2.5-0.8-3.9h0.9c-0.1,1.1,0.1,2.1,0.6,3.2
			c0.4,1.1,1.3,2,2.5,2.7c1.2,0.8,2.9,1.1,5,1.1c2.4,0,4.4-0.6,6-1.8c1.6-1.2,2.6-2.8,2.9-4.8c0.1-0.6,0.1-1.2,0.1-1.7
			c0-1.4-0.3-2.6-1-3.5c-0.7-0.9-1.6-1.6-2.6-2.2c-1-0.5-2.4-1.1-4.1-1.8c-1.7-0.6-3-1.2-4-1.7s-1.9-1.2-2.6-2.2s-1-2.1-1-3.5
			c0-0.5,0-1,0.1-1.6c0.2-1.3,0.7-2.4,1.6-3.5c0.8-1.1,2-1.9,3.4-2.5c1.4-0.6,3.1-0.9,4.9-0.9c1.8,0,3.4,0.3,4.7,1
			c1.3,0.7,2.2,1.5,2.8,2.5s0.9,2.1,0.8,3.2h-0.9c0-0.8-0.2-1.7-0.8-2.6c-0.5-0.9-1.4-1.7-2.6-2.3c-1.2-0.6-2.6-0.9-4.3-0.9
			c-2.3,0-4.3,0.5-5.9,1.6c-1.6,1.1-2.6,2.6-3,4.5c-0.1,0.5-0.1,0.9-0.1,1.4c0,1.3,0.3,2.3,1,3.1c0.6,0.8,1.5,1.5,2.4,2
			c1,0.5,2.3,1,3.9,1.7c1.8,0.7,3.2,1.3,4.3,1.9c1.1,0.6,1.9,1.3,2.7,2.3c0.7,1,1.1,2.3,1.1,3.8c0,0.6-0.1,1.2-0.2,1.9
			c-0.2,1.3-0.8,2.6-1.6,3.7c-0.8,1.1-1.9,2-3.4,2.7c-1.4,0.7-3.1,1-4.9,1C681.2,130.2,679.5,129.9,678.1,129.1z"/>
		<path class="st0" d="M701.9,127.7c-1.8-1.7-2.7-4.1-2.7-7.1c0-2.8,0.6-5.3,1.9-7.7c1.2-2.3,2.9-4.2,5.1-5.6
			c2.2-1.4,4.6-2.1,7.3-2.1c3,0,5.4,0.9,7.2,2.6c1.8,1.7,2.7,4.1,2.7,7.1c0,2.8-0.6,5.3-1.8,7.7c-1.2,2.3-2.9,4.2-5.1,5.6
			c-2.2,1.4-4.6,2.1-7.3,2.1C706.1,130.2,703.7,129.4,701.9,127.7z M716.2,127.4c2-1.3,3.6-3.1,4.7-5.3c1.1-2.2,1.6-4.6,1.6-7.2
			c0-2.9-0.9-5.1-2.6-6.6s-3.9-2.3-6.6-2.3c-2.6,0-4.9,0.7-6.9,2c-2,1.3-3.6,3.1-4.7,5.3c-1.1,2.2-1.7,4.6-1.7,7.2
			c0,2.9,0.9,5.1,2.6,6.7c1.7,1.5,3.9,2.3,6.6,2.3C711.9,129.4,714.2,128.8,716.2,127.4z"/>
		<path class="st0" d="M736.5,98.9c-1.2,1-2,2.6-2.4,4.9l-0.3,1.7h7l-0.2,0.9h-7l-4.2,23.4h-0.9l4.2-23.4h-4l0.2-0.9h3.9l0.3-1.7
			c0.5-2.5,1.4-4.3,2.8-5.5c1.4-1.2,3.6-1.8,6.4-1.8l-0.2,0.9C739.6,97.4,737.7,97.9,736.5,98.9z"/>
		<path class="st0" d="M745,123.5c-0.2,0.9-0.2,1.6-0.2,2.2c0,1.3,0.3,2.1,1,2.6c0.7,0.5,1.8,0.7,3.4,0.7h2.6l-0.2,0.9h-2.7
			c-1.7,0-3-0.3-3.8-1c-0.8-0.6-1.2-1.7-1.2-3.2c0-0.5,0.1-1.3,0.2-2.3l3-17.1h-4l0.2-0.9h4l1.1-6.2h0.9l-1.1,6.2h7.7l-0.2,0.9H748
			L745,123.5z"/>
		<path class="st0" d="M793,105.5l-12,24.4h-0.7l-4.8-22.8l-12.9,22.8h-0.7l-3.3-24.4h1l3.1,22.5l12.7-22.5h0.8l4.8,22.5l11.1-22.5
			H793z"/>
		<path class="st0" d="M797.1,111.1c1.3-1.9,3-3.3,5-4.3c2-1,4.1-1.5,6.5-1.5c2.8,0,5,0.7,6.7,2.2c1.7,1.4,2.7,3.3,2.9,5.6l1.3-7.4
			h0.9l-4.3,24.4h-0.9l1.3-7.4c-1.1,2.3-2.7,4.1-4.9,5.6c-2.2,1.5-4.7,2.2-7.5,2.2c-3.1,0-5.5-0.9-7.3-2.6c-1.8-1.7-2.7-4.1-2.7-7
			c0-0.9,0.1-1.9,0.3-2.9C794.9,115.2,795.8,112.9,797.1,111.1z M817.6,115.2c0-2.8-0.8-5-2.5-6.7c-1.7-1.6-3.9-2.5-6.7-2.5
			c-3.4,0-6.2,1-8.6,3.1c-2.3,2.1-3.8,4.9-4.5,8.6c-0.2,1-0.3,1.9-0.3,2.8c0,2.8,0.8,5,2.4,6.5c1.6,1.6,3.9,2.3,6.8,2.3
			c2.1,0,4.1-0.5,5.9-1.5c1.9-1,3.4-2.3,4.6-4.1s2.1-3.8,2.5-6.1C817.5,117,817.6,116.1,817.6,115.2z"/>
		<path class="st0" d="M838.7,105l-0.2,1h-0.4c-2.5,0-4.8,0.7-6.8,2.1c-2,1.4-3.4,3.7-4,6.9l-2.6,14.9h-0.9l4.3-24.4h0.9l-1,6
			C829.6,107.2,833.2,105,838.7,105z"/>
		<path class="st0" d="M859.2,106.4c1.4,0.8,2.5,1.8,3.2,3.1c0.7,1.3,1.1,2.7,1.1,4.3c0,0.4-0.1,1-0.2,1.9l-0.2,0.9
			c-0.1,0.5-0.2,1-0.3,1.5h-22c-0.2,1-0.2,1.8-0.2,2.5c0,2.9,0.9,5.1,2.6,6.6c1.7,1.5,3.9,2.2,6.5,2.2c2.7,0,5.2-0.7,7.3-2.1
			s3.6-3.3,4.4-5.7h0.9c-0.9,2.6-2.4,4.6-4.7,6.2c-2.3,1.6-4.9,2.4-8,2.4c-3,0-5.4-0.9-7.1-2.6c-1.8-1.7-2.7-4.1-2.7-7.1
			c0-0.9,0.1-1.9,0.3-2.9c0.5-2.6,1.3-4.8,2.7-6.7s3-3.3,4.9-4.3c2-1,4.1-1.5,6.3-1.5C856.1,105.2,857.8,105.6,859.2,106.4z
			 M862.7,114.2c0-2.7-0.8-4.7-2.5-6.1c-1.7-1.4-3.8-2.1-6.3-2.1c-1.9,0-3.8,0.4-5.6,1.2c-1.8,0.8-3.3,2.1-4.6,3.8
			c-1.3,1.7-2.2,3.8-2.6,6.3h21.2C862.5,116.1,862.7,115.1,862.7,114.2z"/>
	</g>
</g>
<g>
	<path class="st1" d="M155.6,165.8c42.1,0,76.5-34.1,76.5-76c0-41.9-34.4-76-76.5-76S79,47.9,79,89.8
		C79,131.6,113.4,165.8,155.6,165.8"/>
	<path class="st1" d="M248.3,32.4c8.9,0,16.2-7.3,16.2-16.2s-7.3-16.2-16.2-16.2c-8.9,0-16.2,7.3-16.2,16.2S239.4,32.4,248.3,32.4"
		/>
	<path class="st1" d="M244.6,56.6c4.5,0,8.1-3.6,8.1-8.1c0-4.5-3.7-8.1-8.1-8.1c-4.5,0-8.1,3.6-8.1,8.1
		C236.5,52.9,240.1,56.6,244.6,56.6"/>
	<path class="st1" d="M218.8,24.5c2.2,0,4.1-1.8,4.1-4.1c0-2.2-1.8-4.1-4.1-4.1c-2.2,0-4.1,1.8-4.1,4.1
		C214.8,22.7,216.6,24.5,218.8,24.5"/>
	<path class="st2" d="M131.4,61.9c7.4,0,14,3,18.9,7.8c4.3,4.3,7.1,10,7.7,16.3h-4.3c-0.6-5.2-2.9-9.8-6.4-13.3
		c-4.1-4.1-9.7-6.6-15.9-6.6c-6.2,0-11.8,2.5-15.9,6.6c-4.1,4.1-6.6,9.7-6.6,15.9c0,6.2,2.5,11.8,6.6,15.9c4.1,4.1,9.7,6.6,15.9,6.6
		c6.2,0,11.8-2.5,15.9-6.6c0.1-0.1,0.2-0.2,0.2-0.2v5.6c-4.5,3.4-10.1,5.4-16.1,5.4c-7.4,0-14-3-18.9-7.8
		c-4.8-4.8-7.8-11.5-7.8-18.9c0-7.4,3-14,7.8-18.9C117.3,64.9,124,61.9,131.4,61.9"/>
	<path class="st2" d="M153.1,90.9c0-7.4,3-14,7.9-18.8c4.3-4.3,10-7.1,16.4-7.6l0,4.3c-5.2,0.6-9.8,2.9-13.4,6.4
		c-4.1,4-6.6,9.7-6.6,15.9c0,6.2,2.5,11.8,6.5,15.9c4,4.1,9.7,6.6,15.9,6.6c6.2,0,11.8-2.5,15.9-6.5c4.1-4,6.6-9.7,6.6-15.9
		c0-2.3-0.3-4.4-0.9-6.5h4.4c0.5,2.1,0.8,4.3,0.8,6.5c0,7.4-3,14-7.9,18.8c-4.8,4.8-11.5,7.8-18.9,7.8c-7.4,0-14-3-18.8-7.9
		C156,104.9,153,98.2,153.1,90.9"/>
	<polygon class="st2" points="205.3,82.6 179.9,82.6 179.9,86.3 206,86.3 	"/>
	<path class="st3" d="M298.5,78.8c-0.9-0.7-1.8-1.1-2.8-1.5c-0.9-0.3-1.9-0.5-2.9-0.5c-2,0-3.6,0.6-4.8,1.7
		c-1.1,1.1-1.7,2.4-1.7,3.8c0,1.3,0.5,2.5,1.6,3.6c1.1,1.2,2.8,2.2,5,3.2l0,0c1.5,0.6,2.7,1.2,3.8,1.9c1.1,0.7,2,1.3,2.7,2l0,0
		c0.8,0.9,1.5,1.9,1.9,3c0.4,1.1,0.6,2.3,0.6,3.6c0,3-1.1,5.5-3.3,7.4l0,0c-1.1,0.9-2.3,1.6-3.7,2c-1.4,0.4-2.9,0.7-4.5,0.7
		c-1.6,0-3-0.2-4.5-0.6c-1.4-0.4-2.8-1-4.1-1.9l-0.6-0.4l0.4-0.7l1.1-1.8l0.4-0.7l0.7,0.4c1.2,0.8,2.3,1.3,3.5,1.7
		c1.1,0.4,2.2,0.5,3.3,0.5c1,0,2-0.1,2.9-0.4c0.9-0.3,1.7-0.7,2.4-1.3l0,0c0.8-0.6,1.4-1.3,1.7-2.1c0.4-0.8,0.6-1.6,0.6-2.6
		c0-1.5-0.5-2.9-1.6-4.1c-1.1-1.3-2.9-2.4-5.2-3.3l0,0c-2.9-1.1-5-2.5-6.5-4c-1.5-1.6-2.3-3.5-2.3-5.5c0-2.6,0.9-4.8,2.8-6.6l0,0
		c1-0.9,2.1-1.6,3.4-2.1c1.3-0.5,2.7-0.7,4.3-0.7c2.9,0,5.4,0.8,7.5,2.4l0.6,0.4l-0.4,0.6l-1.1,1.7l-0.5,0.7L298.5,78.8z
		 M326.2,65.5c0,2.2-1,3.3-3,3.3c-2,0-3-1.1-3-3.3c0-2.2,1-3.3,3-3.3C325.2,62.2,326.2,63.3,326.2,65.5 M324.3,109h-2.2h-0.8v-0.8
		V75v-0.8h0.8h2.2h0.8V75v33.2v0.8H324.3z M361.3,78.8c-0.9-0.7-1.8-1.1-2.8-1.5c-0.9-0.3-1.9-0.5-2.9-0.5c-2,0-3.6,0.6-4.8,1.7
		c-1.1,1.1-1.7,2.4-1.7,3.8c0,1.3,0.5,2.5,1.5,3.6c1.1,1.2,2.8,2.2,5,3.2l0,0c1.5,0.6,2.7,1.2,3.8,1.9c1.1,0.7,2,1.3,2.7,2l0,0
		c0.8,0.9,1.5,1.9,1.9,3c0.4,1.1,0.6,2.3,0.6,3.6c0,3-1.1,5.5-3.3,7.4l0,0c-1.1,0.9-2.3,1.6-3.7,2c-1.4,0.4-2.9,0.7-4.5,0.7
		c-1.6,0-3-0.2-4.5-0.6c-1.4-0.4-2.8-1-4.1-1.9l-0.6-0.4l0.4-0.7l1.1-1.8l0.4-0.7l0.7,0.4c1.2,0.8,2.3,1.3,3.5,1.7
		c1.1,0.4,2.2,0.5,3.3,0.5c1,0,2-0.1,2.9-0.4c0.9-0.3,1.7-0.7,2.4-1.3l0,0c0.8-0.6,1.4-1.3,1.7-2.1c0.4-0.8,0.6-1.6,0.6-2.6
		c0-1.5-0.5-2.9-1.6-4.1c-1.1-1.3-2.9-2.4-5.2-3.3v0c-2.9-1.1-5-2.5-6.5-4c-1.5-1.6-2.3-3.5-2.3-5.5c0-2.6,0.9-4.8,2.8-6.6l0,0
		c1-0.9,2.1-1.6,3.4-2.1c1.3-0.5,2.7-0.7,4.3-0.7c2.9,0,5.4,0.8,7.5,2.4l0.6,0.4l-0.4,0.6l-1.1,1.7l-0.5,0.7L361.3,78.8z
		 M385.8,68.2l2.2-1l1.1-0.5V68v6.3h9h0.8V75v1.9v0.8h-0.8h-9v22.1c0,2.3,0.4,3.9,1.2,5c0.7,1,1.8,1.5,3.3,1.5c0.4,0,0.7,0,1.1,0
		c0.3,0,0.7-0.1,1-0.1l0,0c0.1,0,0.2,0,0.3-0.1c0.1,0,0.2-0.1,0.3-0.1v0l0.7-0.2l0.8-0.3l0.2,0.8l0.5,1.6l0.2,0.7l-0.7,0.3
		c-0.7,0.3-1.4,0.5-2.2,0.6c-0.8,0.1-1.6,0.2-2.4,0.2c-1.6,0-3-0.3-4.2-1c-1.2-0.7-2.1-1.6-2.7-2.9l0,0c-0.2-0.5-0.5-1-0.6-1.6
		c-0.2-0.6-0.3-1.2-0.4-1.9h0c-0.1-0.4-0.1-1-0.1-1.5c0-0.6-0.1-1.2-0.1-1.8V76.9V75v-6.1v-0.5L385.8,68.2z M440.6,107.4
		c-0.1,0.1-0.3,0.2-0.5,0.3c-0.2,0.1-0.3,0.1-0.4,0.2c-0.1,0.1-0.3,0.1-0.4,0.2c-0.3,0.1-0.6,0.3-1,0.4c-0.4,0.1-0.7,0.2-1.1,0.4
		c-0.5,0.1-1,0.3-1.5,0.4c-0.5,0.1-1.1,0.2-1.6,0.3h0c-0.7,0.1-1.3,0.2-2,0.2c-0.7,0-1.4,0.1-2.1,0.1c-4.8,0-8.7-1.7-11.6-5
		c-2.9-3.2-4.3-7.4-4.3-12.5c0-2.9,0.4-5.5,1.1-7.8c0.7-2.3,1.9-4.4,3.4-6.1c1.4-1.6,3-2.9,4.9-3.7c1.8-0.8,3.9-1.2,6.1-1.2
		c2.5,0,4.7,0.5,6.5,1.5h0c0.8,0.5,1.6,1,2.3,1.7c0.7,0.7,1.3,1.4,1.9,2.3l0,0c0.5,0.8,0.9,1.6,1.2,2.5c0.3,0.9,0.6,1.8,0.8,2.8
		c0.4,1.7,0.6,3.5,0.6,5.4v0.6c0,0.3,0,0.5-0.1,0.7l-0.2,0.5h-0.6h-24.2c0.1,4.9,1.1,8.6,3.1,11c2,2.5,5.1,3.7,9.2,3.8l0.2,0v0
		c1.1,0,2.1-0.1,3-0.2c0.9-0.1,1.8-0.3,2.6-0.5l0,0c0.3-0.1,0.6-0.2,0.9-0.3c0.3-0.1,0.6-0.2,0.9-0.4l0,0c0.1-0.1,0.3-0.1,0.6-0.2
		c0.2-0.1,0.5-0.2,0.8-0.4l0.7-0.4l0.3,0.8l0.7,1.7l0.3,0.6L440.6,107.4z M438.8,88.1c0-0.3,0-0.6-0.1-0.9c-0.1-0.6-0.1-1.2-0.3-1.8
		c-0.2-0.7-0.4-1.4-0.6-2.1c-0.2-0.7-0.5-1.3-0.8-1.9l0,0c-0.4-0.7-0.8-1.3-1.3-1.9c-0.5-0.5-1-1-1.6-1.4l0,0
		c-0.7-0.5-1.5-0.8-2.3-1c-0.8-0.2-1.7-0.3-2.7-0.3c-1.6,0-3.1,0.3-4.4,1c-1.3,0.7-2.5,1.7-3.6,3c-0.9,1.1-1.6,2.3-2.1,3.7
		c-0.4,1.1-0.7,2.3-0.9,3.5H438.8z M507.8,109h-2.2h-0.8v-0.8V88.9c0-4.1-0.7-7.1-2.2-9.1c-1.4-1.9-3.5-2.9-6.3-2.9
		c-1.2,0-2.3,0.3-3.4,0.8c-1.1,0.5-2.1,1.3-3.1,2.4l0,0c-0.9,1-1.6,2.1-2.1,3.2c-0.5,1.1-0.7,2.2-0.7,3.5v21.5v0.8h-0.8h-2.2h-0.8
		v-0.8v-21c0-3.1-0.7-5.6-2.1-7.5c-0.7-1-1.5-1.7-2.5-2.2c-1-0.5-2.1-0.7-3.4-0.7c-1.3,0-2.5,0.3-3.7,0.9c-1.2,0.6-2.2,1.5-3.2,2.6
		v0c-1.9,2.2-2.8,4.7-2.8,7.2v20.6v0.8h-0.8h-2.2h-0.8v-0.8V82.5c0-2.7-0.1-5.2-0.2-7.4l-0.1-0.8h0.8h2.1h0.8l0,0.8l0.1,3.7
		c0.3-0.3,0.5-0.7,0.8-1c0.8-0.9,1.6-1.6,2.5-2.3l0,0c1-0.7,2.1-1.2,3.3-1.5c1.2-0.3,2.5-0.5,3.8-0.5c2.6,0,4.8,0.7,6.5,2.1
		c1.4,1.1,2.4,2.6,3.2,4.4c0.2-0.3,0.4-0.6,0.6-1h0c0.7-1,1.5-1.9,2.4-2.6c1.2-1,2.4-1.7,3.9-2.2c1.4-0.5,3-0.7,4.6-0.7
		c0.5,0,1,0,1.5,0.1c0.5,0.1,1,0.2,1.5,0.3l0,0c0.7,0.2,1.4,0.5,2,0.8c0.6,0.3,1.2,0.7,1.8,1.2l0,0c0.7,0.6,1.3,1.3,1.9,2.1
		c0.5,0.8,1,1.6,1.4,2.6l0,0c0.5,1.1,0.8,2.4,1,3.7c0.2,1.3,0.3,2.8,0.3,4.3v19.6v0.8H507.8z M551.2,100.4c0,0.9,0,1.6,0,2.1
		c0,0.8-0.1,3,0.2,3.7c0.3,0.6,0.8,1.1,1.5,1.7l0,1.2l-4.1,0l-0.7,0l-0.1-0.7l-0.3-3.1c-0.2,0.2-0.4,0.5-0.6,0.7
		c-0.7,0.7-1.5,1.3-2.4,1.8v0c-1.1,0.7-2.2,1.2-3.5,1.5c-1.2,0.3-2.5,0.5-3.8,0.5c-1.6,0-3.1-0.3-4.4-0.8c-1.3-0.5-2.5-1.3-3.5-2.3
		l0,0c-0.8-0.9-1.5-1.9-1.9-3c-0.4-1.1-0.6-2.3-0.6-3.6l0,0l0-0.2v0c0.1-4.2,1.8-7.4,5.3-9.6c3.4-2.1,8.4-3.1,15-3.1h0v-0.8
		l-0.1-1.8c-0.1-0.7-0.2-1.4-0.4-2c-0.2-0.6-0.3-1.2-0.6-1.7h0c-0.3-0.6-0.6-1.2-1-1.7c-0.4-0.5-0.9-0.9-1.4-1.2
		c-0.6-0.4-1.3-0.7-2.1-0.9c-0.8-0.2-1.7-0.3-2.6-0.3c-1.4,0-2.8,0.2-4,0.6c-1.3,0.4-2.5,1.1-3.7,1.9l-0.7,0.5l-0.4-0.8l-0.9-1.6
		l-0.3-0.6l0.6-0.4c0.8-0.5,1.6-1,2.4-1.4c0.8-0.4,1.7-0.7,2.6-1l0,0c0.8-0.2,1.6-0.4,2.3-0.5c0.8-0.1,1.5-0.2,2.3-0.2
		c2.2,0,4.1,0.4,5.7,1.2c1.6,0.8,2.9,2,3.9,3.5l0,0c0.4,0.6,0.7,1.3,1,2.1c0.3,0.7,0.5,1.5,0.7,2.4l0,0c0.1,0.7,0.2,1.4,0.3,2.2
		c0.1,0.8,0.1,1.5,0.1,2.4V100.4z M547.4,90.7c-0.7,0-1.4,0-2,0c-0.9,0-1.7,0.1-2.6,0.2h0c-1.1,0.1-2.1,0.3-3.1,0.5
		c-0.9,0.2-1.8,0.4-2.6,0.7l0,0c-1.9,0.7-3.4,1.6-4.4,2.7l0,0c-1.1,1.3-1.7,2.9-1.7,4.7c0,2.2,0.7,3.9,2,5.1l0,0
		c0.6,0.5,1.3,0.9,2,1.2c0.7,0.3,1.6,0.4,2.5,0.4c1.7,0,3.3-0.3,4.7-1c0.6-0.3,1.2-0.6,1.7-1c0.5-0.4,1-0.8,1.4-1.3l0,0
		c0.8-0.9,1.3-1.7,1.7-2.6c0.4-0.8,0.5-1.7,0.5-2.5V90.7z M587,78.8c-0.9-0.7-1.8-1.1-2.8-1.5c-0.9-0.3-1.9-0.5-2.9-0.5
		c-2,0-3.6,0.6-4.8,1.7c-1.1,1.1-1.7,2.4-1.7,3.8c0,1.3,0.5,2.5,1.5,3.6c1.1,1.2,2.8,2.2,5,3.2l0,0c1.5,0.6,2.7,1.2,3.8,1.9
		c1.1,0.7,2,1.3,2.7,2l0,0c0.8,0.9,1.5,1.9,1.9,3c0.4,1.1,0.6,2.3,0.6,3.6c0,3-1.1,5.5-3.3,7.4l0,0c-1.1,0.9-2.3,1.6-3.7,2
		c-1.4,0.4-2.9,0.7-4.5,0.7c-1.6,0-3-0.2-4.5-0.6c-1.4-0.4-2.8-1-4.1-1.9l-0.6-0.4l0.4-0.7l1.1-1.8l0.4-0.7l0.7,0.4
		c1.2,0.8,2.3,1.3,3.5,1.7c1.1,0.4,2.2,0.5,3.3,0.5c1,0,2-0.1,2.9-0.4c0.9-0.3,1.7-0.7,2.4-1.3l0,0c0.8-0.6,1.4-1.3,1.7-2.1
		c0.4-0.8,0.6-1.6,0.6-2.6c0-1.5-0.5-2.9-1.6-4.1c-1.1-1.3-2.9-2.4-5.2-3.3l0,0c-2.9-1.1-5-2.5-6.5-4c-1.5-1.6-2.3-3.5-2.3-5.5
		c0-2.6,0.9-4.8,2.8-6.6l0,0c1-0.9,2.1-1.6,3.4-2.1c1.3-0.5,2.7-0.7,4.3-0.7c2.9,0,5.4,0.8,7.5,2.4l0.6,0.4l-0.4,0.6l-1.1,1.7
		l-0.5,0.7L587,78.8z"/>
</g>
<g>
	<path class="st4" d="M637.5,34.6l-49,113.4h-2.1l48.8-113.4H637.5z"/>
	<path class="st4" d="M638.9,67.6h2.6l24.3,24.7l-33,24.6h-2.6l33-24.6L638.9,67.6z"/>
</g>
</svg>
